# xmcd CD database file
#
# Track frame offsets:
#	150
#	18456
#	39861
#	60453
#	87490
#	114803
#	127648
#	148058
#	168884
#	183911
#	194428
#	217916
#	250738
#
# Disc length: 3656 seconds
#
# Revision: 0
# Processed by: cddbd v1.5.1PL0 Copyright (c) Steve Scherf et al.
# Submitted via: CDex 1.51
#
DISCID=a00e460d
DTITLE=Tommy Kotter Trio - Celebrating Spring
DYEAR=2005
DGENRE=Jazz
TTITLE0=Celebrating Spring
TTITLE1=Folksong No.3
TTITLE2=Cavelight
TTITLE3=Seascape
TTITLE4=Ritual Dance
TTITLE5=Autumn Serenade
TTITLE6=Blue Tango
TTITLE7=Lydia
TTITLE8=Mr. Chance
TTITLE9=December
TTITLE10=The Wind Will Ease Tonight
TTITLE11=Vinternatt (Winter Song)
TTITLE12=Mori Song
EXTD=YEAR: 2005
EXTT0=
EXTT1=
EXTT2=
EXTT3=
EXTT4=
EXTT5=
EXTT6=
EXTT7=
EXTT8=
EXTT9=
EXTT10=
EXTT11=
EXTT12=
PLAYORDER=
